<mxfile host="app.diagrams.net" agent="Mozilla/5.0 (Windows NT 10.0; Win64; x64) AppleWebKit/537.36 (KHTML, like Gecko) Chrome/131.0.0.0 Safari/537.36" version="24.9.1">
  <diagram name="Page-1" id="yk-Mjvx3I-b8ZRN-Rifc">
    <mxGraphModel dx="683" dy="829" grid="0" gridSize="10" guides="1" tooltips="1" connect="1" arrows="1" fold="1" page="0" pageScale="1" pageWidth="850" pageHeight="1100" math="0" shadow="0">
      <root>
        <mxCell id="0" />
        <mxCell id="1" parent="0" />
        <mxCell id="Hc0AxxcJk_Cpg9OLjL79-9" style="edgeStyle=orthogonalEdgeStyle;rounded=0;orthogonalLoop=1;jettySize=auto;html=1;exitX=1;exitY=0.5;exitDx=0;exitDy=0;entryX=0;entryY=0.25;entryDx=0;entryDy=0;" edge="1" parent="1" source="Hc0AxxcJk_Cpg9OLjL79-1" target="Hc0AxxcJk_Cpg9OLjL79-43">
          <mxGeometry relative="1" as="geometry">
            <mxPoint x="358" y="-195" as="targetPoint" />
          </mxGeometry>
        </mxCell>
        <mxCell id="Hc0AxxcJk_Cpg9OLjL79-51" style="edgeStyle=orthogonalEdgeStyle;rounded=0;orthogonalLoop=1;jettySize=auto;html=1;exitX=1;exitY=0.5;exitDx=0;exitDy=0;entryX=0;entryY=0.25;entryDx=0;entryDy=0;" edge="1" parent="1" source="Hc0AxxcJk_Cpg9OLjL79-1" target="Hc0AxxcJk_Cpg9OLjL79-44">
          <mxGeometry relative="1" as="geometry" />
        </mxCell>
        <mxCell id="Hc0AxxcJk_Cpg9OLjL79-52" style="edgeStyle=orthogonalEdgeStyle;rounded=0;orthogonalLoop=1;jettySize=auto;html=1;exitX=1;exitY=0.5;exitDx=0;exitDy=0;entryX=0;entryY=0.25;entryDx=0;entryDy=0;" edge="1" parent="1" source="Hc0AxxcJk_Cpg9OLjL79-1" target="Hc0AxxcJk_Cpg9OLjL79-45">
          <mxGeometry relative="1" as="geometry" />
        </mxCell>
        <mxCell id="Hc0AxxcJk_Cpg9OLjL79-53" style="edgeStyle=orthogonalEdgeStyle;rounded=0;orthogonalLoop=1;jettySize=auto;html=1;exitX=1;exitY=0.5;exitDx=0;exitDy=0;entryX=0;entryY=0.25;entryDx=0;entryDy=0;" edge="1" parent="1" source="Hc0AxxcJk_Cpg9OLjL79-1" target="Hc0AxxcJk_Cpg9OLjL79-46">
          <mxGeometry relative="1" as="geometry" />
        </mxCell>
        <mxCell id="Hc0AxxcJk_Cpg9OLjL79-1" value="Sync" style="rounded=0;whiteSpace=wrap;html=1;" vertex="1" parent="1">
          <mxGeometry x="210" y="-211" width="75" height="32" as="geometry" />
        </mxCell>
        <mxCell id="Hc0AxxcJk_Cpg9OLjL79-3" style="edgeStyle=orthogonalEdgeStyle;rounded=0;orthogonalLoop=1;jettySize=auto;html=1;exitX=1;exitY=0.5;exitDx=0;exitDy=0;" edge="1" parent="1" source="Hc0AxxcJk_Cpg9OLjL79-2" target="Hc0AxxcJk_Cpg9OLjL79-1">
          <mxGeometry relative="1" as="geometry" />
        </mxCell>
        <mxCell id="Hc0AxxcJk_Cpg9OLjL79-2" value="[3:0] KEY" style="text;html=1;align=center;verticalAlign=middle;whiteSpace=wrap;rounded=0;" vertex="1" parent="1">
          <mxGeometry x="118" y="-210" width="60" height="30" as="geometry" />
        </mxCell>
        <mxCell id="Hc0AxxcJk_Cpg9OLjL79-7" value="" style="edgeStyle=orthogonalEdgeStyle;rounded=0;orthogonalLoop=1;jettySize=auto;html=1;entryX=0;entryY=0.5;entryDx=0;entryDy=0;" edge="1" parent="1" source="Hc0AxxcJk_Cpg9OLjL79-5" target="Hc0AxxcJk_Cpg9OLjL79-43">
          <mxGeometry relative="1" as="geometry">
            <mxPoint x="358" y="-180" as="targetPoint" />
          </mxGeometry>
        </mxCell>
        <mxCell id="Hc0AxxcJk_Cpg9OLjL79-68" style="edgeStyle=orthogonalEdgeStyle;rounded=0;orthogonalLoop=1;jettySize=auto;html=1;exitX=1;exitY=0.75;exitDx=0;exitDy=0;entryX=0.5;entryY=1;entryDx=0;entryDy=0;elbow=vertical;" edge="1" parent="1" source="Hc0AxxcJk_Cpg9OLjL79-5" target="Hc0AxxcJk_Cpg9OLjL79-67">
          <mxGeometry relative="1" as="geometry">
            <Array as="points">
              <mxPoint x="314" y="-133" />
              <mxPoint x="314" y="13" />
              <mxPoint x="553" y="13" />
              <mxPoint x="553" y="-125" />
              <mxPoint x="553" y="-125" />
            </Array>
          </mxGeometry>
        </mxCell>
        <mxCell id="Hc0AxxcJk_Cpg9OLjL79-5" value="Shift 0" style="rounded=0;whiteSpace=wrap;html=1;" vertex="1" parent="1">
          <mxGeometry x="210" y="-157" width="75" height="32" as="geometry" />
        </mxCell>
        <mxCell id="Hc0AxxcJk_Cpg9OLjL79-48" style="edgeStyle=orthogonalEdgeStyle;rounded=0;orthogonalLoop=1;jettySize=auto;html=1;exitX=1;exitY=0.5;exitDx=0;exitDy=0;entryX=0;entryY=0.5;entryDx=0;entryDy=0;" edge="1" parent="1" source="Hc0AxxcJk_Cpg9OLjL79-10" target="Hc0AxxcJk_Cpg9OLjL79-44">
          <mxGeometry relative="1" as="geometry" />
        </mxCell>
        <mxCell id="Hc0AxxcJk_Cpg9OLjL79-69" style="edgeStyle=orthogonalEdgeStyle;rounded=0;orthogonalLoop=1;jettySize=auto;html=1;exitX=1;exitY=0.75;exitDx=0;exitDy=0;entryX=0.5;entryY=1;entryDx=0;entryDy=0;" edge="1" parent="1" source="Hc0AxxcJk_Cpg9OLjL79-10" target="Hc0AxxcJk_Cpg9OLjL79-67">
          <mxGeometry relative="1" as="geometry">
            <Array as="points">
              <mxPoint x="314" y="-94" />
              <mxPoint x="314" y="13" />
              <mxPoint x="553" y="13" />
              <mxPoint x="553" y="-239" />
            </Array>
          </mxGeometry>
        </mxCell>
        <mxCell id="Hc0AxxcJk_Cpg9OLjL79-10" value="Shift 1" style="rounded=0;whiteSpace=wrap;html=1;" vertex="1" parent="1">
          <mxGeometry x="210" y="-118" width="75" height="32" as="geometry" />
        </mxCell>
        <mxCell id="Hc0AxxcJk_Cpg9OLjL79-49" style="edgeStyle=orthogonalEdgeStyle;rounded=0;orthogonalLoop=1;jettySize=auto;html=1;exitX=1;exitY=0.5;exitDx=0;exitDy=0;entryX=0;entryY=0.5;entryDx=0;entryDy=0;" edge="1" parent="1" source="Hc0AxxcJk_Cpg9OLjL79-11" target="Hc0AxxcJk_Cpg9OLjL79-45">
          <mxGeometry relative="1" as="geometry" />
        </mxCell>
        <mxCell id="Hc0AxxcJk_Cpg9OLjL79-70" style="edgeStyle=orthogonalEdgeStyle;rounded=0;orthogonalLoop=1;jettySize=auto;html=1;exitX=1;exitY=0.75;exitDx=0;exitDy=0;entryX=0.5;entryY=1;entryDx=0;entryDy=0;" edge="1" parent="1" source="Hc0AxxcJk_Cpg9OLjL79-11" target="Hc0AxxcJk_Cpg9OLjL79-67">
          <mxGeometry relative="1" as="geometry">
            <Array as="points">
              <mxPoint x="314" y="-55" />
              <mxPoint x="314" y="13" />
              <mxPoint x="553" y="13" />
              <mxPoint x="553" y="-239" />
            </Array>
          </mxGeometry>
        </mxCell>
        <mxCell id="Hc0AxxcJk_Cpg9OLjL79-11" value="Shift 2" style="rounded=0;whiteSpace=wrap;html=1;" vertex="1" parent="1">
          <mxGeometry x="211" y="-79" width="75" height="32" as="geometry" />
        </mxCell>
        <mxCell id="Hc0AxxcJk_Cpg9OLjL79-50" style="edgeStyle=orthogonalEdgeStyle;rounded=0;orthogonalLoop=1;jettySize=auto;html=1;exitX=1;exitY=0.5;exitDx=0;exitDy=0;entryX=0;entryY=0.5;entryDx=0;entryDy=0;" edge="1" parent="1" source="Hc0AxxcJk_Cpg9OLjL79-12" target="Hc0AxxcJk_Cpg9OLjL79-46">
          <mxGeometry relative="1" as="geometry" />
        </mxCell>
        <mxCell id="Hc0AxxcJk_Cpg9OLjL79-71" style="edgeStyle=orthogonalEdgeStyle;rounded=0;orthogonalLoop=1;jettySize=auto;html=1;exitX=1;exitY=0.75;exitDx=0;exitDy=0;entryX=0.5;entryY=1;entryDx=0;entryDy=0;" edge="1" parent="1" source="Hc0AxxcJk_Cpg9OLjL79-12" target="Hc0AxxcJk_Cpg9OLjL79-67">
          <mxGeometry relative="1" as="geometry">
            <Array as="points">
              <mxPoint x="314" y="-16" />
              <mxPoint x="314" y="13" />
              <mxPoint x="553" y="13" />
              <mxPoint x="553" y="-239" />
            </Array>
          </mxGeometry>
        </mxCell>
        <mxCell id="Hc0AxxcJk_Cpg9OLjL79-12" value="Shift 3" style="rounded=0;whiteSpace=wrap;html=1;" vertex="1" parent="1">
          <mxGeometry x="210" y="-40" width="75" height="32" as="geometry" />
        </mxCell>
        <mxCell id="Hc0AxxcJk_Cpg9OLjL79-14" value="HEX0" style="text;html=1;align=center;verticalAlign=middle;whiteSpace=wrap;rounded=0;" vertex="1" parent="1">
          <mxGeometry x="443.5" y="-333" width="60" height="30" as="geometry" />
        </mxCell>
        <mxCell id="Hc0AxxcJk_Cpg9OLjL79-16" value="LED Board" style="text;html=1;align=center;verticalAlign=middle;whiteSpace=wrap;rounded=0;" vertex="1" parent="1">
          <mxGeometry x="522.5" y="-339" width="60" height="30" as="geometry" />
        </mxCell>
        <mxCell id="Hc0AxxcJk_Cpg9OLjL79-20" style="edgeStyle=orthogonalEdgeStyle;rounded=0;orthogonalLoop=1;jettySize=auto;html=1;exitX=0.5;exitY=0;exitDx=0;exitDy=0;entryX=0.5;entryY=1;entryDx=0;entryDy=0;" edge="1" parent="1" source="Hc0AxxcJk_Cpg9OLjL79-19" target="Hc0AxxcJk_Cpg9OLjL79-14">
          <mxGeometry relative="1" as="geometry" />
        </mxCell>
        <mxCell id="Hc0AxxcJk_Cpg9OLjL79-29" style="edgeStyle=orthogonalEdgeStyle;rounded=0;orthogonalLoop=1;jettySize=auto;html=1;exitX=0;exitY=0.5;exitDx=0;exitDy=0;entryX=1;entryY=0.5;entryDx=0;entryDy=0;" edge="1" parent="1" source="Hc0AxxcJk_Cpg9OLjL79-19" target="Hc0AxxcJk_Cpg9OLjL79-23">
          <mxGeometry relative="1" as="geometry" />
        </mxCell>
        <mxCell id="Hc0AxxcJk_Cpg9OLjL79-19" value="Digit" style="rounded=0;whiteSpace=wrap;html=1;" vertex="1" parent="1">
          <mxGeometry x="443.5" y="-269" width="60" height="30" as="geometry" />
        </mxCell>
        <mxCell id="Hc0AxxcJk_Cpg9OLjL79-21" value="HEX1" style="text;html=1;align=center;verticalAlign=middle;whiteSpace=wrap;rounded=0;" vertex="1" parent="1">
          <mxGeometry x="368" y="-333" width="60" height="30" as="geometry" />
        </mxCell>
        <mxCell id="Hc0AxxcJk_Cpg9OLjL79-22" style="edgeStyle=orthogonalEdgeStyle;rounded=0;orthogonalLoop=1;jettySize=auto;html=1;exitX=0.5;exitY=0;exitDx=0;exitDy=0;entryX=0.5;entryY=1;entryDx=0;entryDy=0;" edge="1" parent="1" source="Hc0AxxcJk_Cpg9OLjL79-23" target="Hc0AxxcJk_Cpg9OLjL79-21">
          <mxGeometry relative="1" as="geometry" />
        </mxCell>
        <mxCell id="Hc0AxxcJk_Cpg9OLjL79-34" style="edgeStyle=orthogonalEdgeStyle;rounded=0;orthogonalLoop=1;jettySize=auto;html=1;exitX=0;exitY=0.5;exitDx=0;exitDy=0;entryX=1;entryY=0.5;entryDx=0;entryDy=0;" edge="1" parent="1" source="Hc0AxxcJk_Cpg9OLjL79-23" target="Hc0AxxcJk_Cpg9OLjL79-27">
          <mxGeometry relative="1" as="geometry" />
        </mxCell>
        <mxCell id="Hc0AxxcJk_Cpg9OLjL79-23" value="Digit" style="rounded=0;whiteSpace=wrap;html=1;" vertex="1" parent="1">
          <mxGeometry x="368" y="-269" width="60" height="30" as="geometry" />
        </mxCell>
        <mxCell id="Hc0AxxcJk_Cpg9OLjL79-35" style="edgeStyle=orthogonalEdgeStyle;rounded=0;orthogonalLoop=1;jettySize=auto;html=1;exitX=0;exitY=0.5;exitDx=0;exitDy=0;entryX=1;entryY=0.5;entryDx=0;entryDy=0;" edge="1" parent="1" source="Hc0AxxcJk_Cpg9OLjL79-27" target="Hc0AxxcJk_Cpg9OLjL79-33">
          <mxGeometry relative="1" as="geometry" />
        </mxCell>
        <mxCell id="Hc0AxxcJk_Cpg9OLjL79-27" value="..." style="text;html=1;align=center;verticalAlign=middle;whiteSpace=wrap;rounded=0;" vertex="1" parent="1">
          <mxGeometry x="310" y="-269" width="42.5" height="30" as="geometry" />
        </mxCell>
        <mxCell id="Hc0AxxcJk_Cpg9OLjL79-31" value="HEX5" style="text;html=1;align=center;verticalAlign=middle;whiteSpace=wrap;rounded=0;" vertex="1" parent="1">
          <mxGeometry x="235" y="-333" width="60" height="30" as="geometry" />
        </mxCell>
        <mxCell id="Hc0AxxcJk_Cpg9OLjL79-32" style="edgeStyle=orthogonalEdgeStyle;rounded=0;orthogonalLoop=1;jettySize=auto;html=1;exitX=0.5;exitY=0;exitDx=0;exitDy=0;entryX=0.5;entryY=1;entryDx=0;entryDy=0;" edge="1" parent="1" source="Hc0AxxcJk_Cpg9OLjL79-33" target="Hc0AxxcJk_Cpg9OLjL79-31">
          <mxGeometry relative="1" as="geometry" />
        </mxCell>
        <mxCell id="Hc0AxxcJk_Cpg9OLjL79-33" value="Digit" style="rounded=0;whiteSpace=wrap;html=1;" vertex="1" parent="1">
          <mxGeometry x="235" y="-269" width="60" height="30" as="geometry" />
        </mxCell>
        <mxCell id="Hc0AxxcJk_Cpg9OLjL79-63" style="edgeStyle=orthogonalEdgeStyle;rounded=0;orthogonalLoop=1;jettySize=auto;html=1;exitX=1;exitY=0.5;exitDx=0;exitDy=0;entryX=0.5;entryY=1;entryDx=0;entryDy=0;" edge="1" parent="1" source="Hc0AxxcJk_Cpg9OLjL79-43" target="Hc0AxxcJk_Cpg9OLjL79-19">
          <mxGeometry relative="1" as="geometry" />
        </mxCell>
        <mxCell id="Hc0AxxcJk_Cpg9OLjL79-43" value="Scoring" style="rounded=0;whiteSpace=wrap;html=1;" vertex="1" parent="1">
          <mxGeometry x="379" y="-157" width="75" height="32" as="geometry" />
        </mxCell>
        <mxCell id="Hc0AxxcJk_Cpg9OLjL79-64" style="edgeStyle=orthogonalEdgeStyle;rounded=0;orthogonalLoop=1;jettySize=auto;html=1;exitX=1;exitY=0.5;exitDx=0;exitDy=0;entryX=0.5;entryY=1;entryDx=0;entryDy=0;" edge="1" parent="1" source="Hc0AxxcJk_Cpg9OLjL79-44" target="Hc0AxxcJk_Cpg9OLjL79-19">
          <mxGeometry relative="1" as="geometry" />
        </mxCell>
        <mxCell id="Hc0AxxcJk_Cpg9OLjL79-44" value="Scoring" style="rounded=0;whiteSpace=wrap;html=1;" vertex="1" parent="1">
          <mxGeometry x="379" y="-118" width="75" height="32" as="geometry" />
        </mxCell>
        <mxCell id="Hc0AxxcJk_Cpg9OLjL79-65" style="edgeStyle=orthogonalEdgeStyle;rounded=0;orthogonalLoop=1;jettySize=auto;html=1;exitX=1;exitY=0.5;exitDx=0;exitDy=0;entryX=0.5;entryY=1;entryDx=0;entryDy=0;" edge="1" parent="1" source="Hc0AxxcJk_Cpg9OLjL79-45" target="Hc0AxxcJk_Cpg9OLjL79-19">
          <mxGeometry relative="1" as="geometry">
            <mxPoint x="523.1904761904761" y="-208.52380952380952" as="targetPoint" />
          </mxGeometry>
        </mxCell>
        <mxCell id="Hc0AxxcJk_Cpg9OLjL79-45" value="Scoring" style="rounded=0;whiteSpace=wrap;html=1;" vertex="1" parent="1">
          <mxGeometry x="379" y="-79" width="75" height="32" as="geometry" />
        </mxCell>
        <mxCell id="Hc0AxxcJk_Cpg9OLjL79-66" style="edgeStyle=orthogonalEdgeStyle;rounded=0;orthogonalLoop=1;jettySize=auto;html=1;exitX=1;exitY=0.5;exitDx=0;exitDy=0;entryX=0.5;entryY=1;entryDx=0;entryDy=0;" edge="1" parent="1" source="Hc0AxxcJk_Cpg9OLjL79-46" target="Hc0AxxcJk_Cpg9OLjL79-19">
          <mxGeometry relative="1" as="geometry" />
        </mxCell>
        <mxCell id="Hc0AxxcJk_Cpg9OLjL79-46" value="Scoring" style="rounded=0;whiteSpace=wrap;html=1;" vertex="1" parent="1">
          <mxGeometry x="379" y="-40" width="75" height="32" as="geometry" />
        </mxCell>
        <mxCell id="Hc0AxxcJk_Cpg9OLjL79-54" value="" style="triangle;whiteSpace=wrap;html=1;aspect=fixed;" vertex="1" parent="1">
          <mxGeometry x="210" y="-148.5" width="11.25" height="15" as="geometry" />
        </mxCell>
        <mxCell id="Hc0AxxcJk_Cpg9OLjL79-55" value="" style="triangle;whiteSpace=wrap;html=1;aspect=fixed;" vertex="1" parent="1">
          <mxGeometry x="210" y="-109.5" width="11.25" height="15" as="geometry" />
        </mxCell>
        <mxCell id="Hc0AxxcJk_Cpg9OLjL79-56" value="" style="triangle;whiteSpace=wrap;html=1;aspect=fixed;" vertex="1" parent="1">
          <mxGeometry x="211" y="-70.5" width="11.25" height="15" as="geometry" />
        </mxCell>
        <mxCell id="Hc0AxxcJk_Cpg9OLjL79-57" value="" style="triangle;whiteSpace=wrap;html=1;aspect=fixed;" vertex="1" parent="1">
          <mxGeometry x="210" y="-31.5" width="11.25" height="15" as="geometry" />
        </mxCell>
        <mxCell id="Hc0AxxcJk_Cpg9OLjL79-58" value="" style="triangle;whiteSpace=wrap;html=1;aspect=fixed;" vertex="1" parent="1">
          <mxGeometry x="210" y="-195" width="11.25" height="15" as="geometry" />
        </mxCell>
        <mxCell id="Hc0AxxcJk_Cpg9OLjL79-59" value="" style="triangle;whiteSpace=wrap;html=1;aspect=fixed;" vertex="1" parent="1">
          <mxGeometry x="379" y="-140" width="11.25" height="15" as="geometry" />
        </mxCell>
        <mxCell id="Hc0AxxcJk_Cpg9OLjL79-60" value="" style="triangle;whiteSpace=wrap;html=1;aspect=fixed;" vertex="1" parent="1">
          <mxGeometry x="379" y="-101" width="11.25" height="15" as="geometry" />
        </mxCell>
        <mxCell id="Hc0AxxcJk_Cpg9OLjL79-61" value="" style="triangle;whiteSpace=wrap;html=1;aspect=fixed;" vertex="1" parent="1">
          <mxGeometry x="379" y="-62" width="11.25" height="15" as="geometry" />
        </mxCell>
        <mxCell id="Hc0AxxcJk_Cpg9OLjL79-62" value="" style="triangle;whiteSpace=wrap;html=1;aspect=fixed;" vertex="1" parent="1">
          <mxGeometry x="379" y="-23" width="11.25" height="15" as="geometry" />
        </mxCell>
        <mxCell id="Hc0AxxcJk_Cpg9OLjL79-72" style="edgeStyle=orthogonalEdgeStyle;rounded=0;orthogonalLoop=1;jettySize=auto;html=1;exitX=0.5;exitY=0;exitDx=0;exitDy=0;entryX=0.5;entryY=1;entryDx=0;entryDy=0;" edge="1" parent="1" source="Hc0AxxcJk_Cpg9OLjL79-67" target="Hc0AxxcJk_Cpg9OLjL79-16">
          <mxGeometry relative="1" as="geometry" />
        </mxCell>
        <mxCell id="Hc0AxxcJk_Cpg9OLjL79-67" value="Transpose" style="rounded=0;whiteSpace=wrap;html=1;" vertex="1" parent="1">
          <mxGeometry x="515" y="-273.5" width="75" height="34.5" as="geometry" />
        </mxCell>
      </root>
    </mxGraphModel>
  </diagram>
</mxfile>
